# xmcd
#
# Track frame offsets:
#	150
#	12352
#	25497
#	38227
#	52872
#	67714
#	81380
#	95316
#	108764
#	123745
#	139644
#	153300
#	167484
#	182454
#	196163
#	209956
#	223282
#	237660
#
# Disc length: 3331 seconds
#
# Revision: 1
# Processed by: cddbd v1.4PL0 Copyright (c) Steve Scherf et al.
# Submitted via: audiograbber 1.81.02
#
DISCID=f90d0112
DTITLE=Lonnies Johnson - The Blues 1925 - 1947
DYEAR=1998
DGENRE=Blues
TTITLE0=Mr Johnson Blues
TTITLE1=Mean Old Bedbug Blues
TTITLE2=Blues in G
TTITLE3=Guitar Blues
TTITLE4=Bull Frog Moan
TTITLE5=From Now On Make Ypur Whoopee At Home
TTITLE6=Deep Minor Blues
TTITLE7=Hot Fingers
TTITLE8=Wipe It Off
TTITLE9=I Got The Best Jelly Roll In Town #2
TTITLE10=Sam, You Can't Do That To Me
TTITLE11=What Makes You Act Like That
TTITLE12=Let All Maried Women Alone
TTITLE13=Beautifull But Dumb
TTITLE14=Sleepy Water Blues
TTITLE15=Cat You Been Missin Around
TTITLE16=Winnie The Wailer
TTITLE17=There Is No Justice
EXTD=Groupe Frémeaux Colombini SA\nréf: FA262 
EXTT0=
EXTT1=
EXTT2=
EXTT3=
EXTT4=
EXTT5=
EXTT6=
EXTT7=
EXTT8=
EXTT9=
EXTT10=
EXTT11=
EXTT12=
EXTT13=
EXTT14=
EXTT15=
EXTT16=
EXTT17=
PLAYORDER=
